<svg xmlns="http://www.w3.org/2000/svg" xmlns:xlink="http://www.w3.org/1999/xlink" id="utorrent" enable-background="new 0 0 216 214.684" version="1.1" viewBox="0 0 216 214.684" xml:space="preserve"><g><path d="M205.6483,139.7736c-7.004,0.074-12.574-0.4844-16.5508-1.6212c-12.0468-3.4416-15.7655-8.3712-15.7695-8.3712 c-0.8437-1.2656-2.328-1.9568-3.8517-1.742c-1.5116,0.1992-2.7812,1.242-3.2692,2.6872 c-0.0548,0.1644-5.7308,16.5628-19.9964,23.6956c-14.8164,7.41-41.664,5.6016-41.9256,5.5896 c-1.4531-0.1368-2.754,0.5392-3.5548,1.6876c-0.8084,1.1484-0.9568,2.6328-0.3903,3.914l20.5935,46.6836 c0.6484,1.4688,2.0936,2.3868,3.66,2.3868c0.2072,0,0.422-0.0156,0.6328-0.0508c38.504-6.1756,70.7737-32.8008,84.2112-69.4844 c0.4532-1.2304,0.2732-2.6056-0.4844-3.6796C208.1951,140.3984,206.8787,139.6916,205.6483,139.7736z M126.9883,206.1992 l-16.754-37.9764c9.5428,0.0544,27.4764-0.6096,39.5548-6.6448c11.6872-5.8436,18.4256-16.3672,21.6444-22.8164 c3.1248,2.2696,8.0392,4.9612,15.4688,7.086c3.4608,0.9884,7.7892,1.5976,12.922,1.828 C186.7303,177.9648,159.4375,199.9608,126.9883,206.1992z"/><path d="M108,0C48.4491,0,0,48.4492,0,108c0,47.2072,31.5271,89.7228,76.668,103.3828c0.3827,0.1172,0.7735,0.172,1.16,0.172 c1.1015,0,2.176-0.4572,2.9455-1.2932c1.0388-1.1288,1.3396-2.7536,0.7732-4.1836C38.9727,98.754,31.2615,73.7852,30.0507,68.0236 c5.742-3.0316,24.9573-7.2112,30.0664-6.3712c1.504,2.1404,4.6056,9.7304,7.3632,16.4804 c10.4612,25.5976,26.2656,64.2892,48.2344,65.8556c15.59,1.1132,29.6253-4.7892,37.6484-15.7776 c4.8752-6.6756,6.5392-14.2224,4.3516-19.6952c-3.328-8.3204-18.6796-43.3436-24.1444-55.7852l24.0624-6.0156 c5.25,12.4844,24.2968,57.0468,33.2968,67.8476c3.922,4.7032,10.672,7.586,20.0665,8.5624 c2.2343,0.1836,4.1563-1.3632,4.3907-3.5544C215.7927,115.7616,216,111.8672,216,108C216,48.4492,167.5507,0,108,0z M207.7891,114.5744c-5.0472-0.9844-8.7112-2.7308-10.7148-5.1368c-7.8828-9.4572-26.766-52.9924-33.3792-68.9688 c-0.7576-1.828-2.746-2.84-4.664-2.3476l-32,8c-1.1444,0.2852-2.1056,1.0584-2.6248,2.1172 c-0.5156,1.0584-0.5432,2.2928-0.0663,3.3708c0.2183,0.5,22.0155,50.0548,25.9451,59.8752 c0.9492,2.3712,0.2696,7.004-3.3828,12.0076c-6.3908,8.75-17.832,13.422-30.6172,12.5196 c-17.0116-1.2148-32.8752-40.0468-41.3984-60.906c-6.254-15.3008-8.2072-19.762-11.6212-20.8984 C56.0663,51.8008,28.336,58.004,23.172,63.172c-2.6057,2.6052-4.8673,4.8632,47.7067,137.7068C33.4647,185.8632,8,148.828,8,108 C8,52.8592,52.8591,8,108,8c55.1407,0,100,44.8592,100,100C208,110.1916,207.9295,112.3908,207.7891,114.5744z"/></g></svg>